# xmcd
#
# Track frame offsets: 
#        150
#        5294
#        10133
#        33938
#        83532
#        118963
#        138332
#        156972
#        191530
#        198367
#        209950
#        222297
#
# Disc length: 3074 seconds
#
# Revision: 0
# Processed by: cddbd v1.5.1PL2 Copyright (c) Steve Scherf et al.
# Submitted via: ExactAudioCopy v0.95b4
#
DISCID=a30c000c
DTITLE=Muddy Waters - Maison De Radio FM, Blues and Jazz Festival, Paris
DTITLE=, France, November 7th 1976 [CD2]
DYEAR=1900
DGENRE=
TTITLE0=Outro Tune
TTITLE1=French DJ
TTITLE2=Nothing But Soul
TTITLE3=How Blue Can You Get
TTITLE4=Muddy Intro -> Five Long Years
TTITLE5=I Live the Life I Love
TTITLE6=Don't Go No Farther
TTITLE7=St. Louis BLues
TTITLE8=Outro Tune
TTITLE9=Got My Mojo Working
TTITLE10=Got My Mojo Working (reprise)
TTITLE11=Outro Tune
EXTD=
EXTT0=
EXTT1=
EXTT2=
EXTT3=
EXTT4=
EXTT5=
EXTT6=
EXTT7=
EXTT8=
EXTT9=
EXTT10=
EXTT11=
PLAYORDER=
